<svg xmlns="http://www.w3.org/2000/svg" style="display:none">

  <symbol id="chevron-right" viewBox="0 0 24 24">
    <path d="M9 6l6 6-6 6" fill="none" stroke="currentColor" stroke-width="2" stroke-linecap="round" stroke-linejoin="round"/>
  </symbol>

  <symbol id="chevron-down" viewBox="0 0 24 24">
    <path d="M6 9l6 6 6-6" fill="none" stroke="currentColor" stroke-width="2" stroke-linecap="round" stroke-linejoin="round"/>
  </symbol>

  <symbol id="telegram" viewBox="0 0 24 24">
    <path d="M21.5 3.5 2.9 10.9c-1.2.5-1.2 1.2-.2 1.5l4.8 1.5 1.8 5.6c.2.6.4.9.9.9.4 0 .6-.2.9-.5l2.2-2.1 4.6 3.4c.8.5 1.4.2 1.6-.7l3-14.1c.3-1.2-.4-1.7-1.2-1.4Zm-3.6 3.6-7.9 7.2-.3 3.1-1.5-4.7 9.2-6.3c.4-.3.8-.1.5.7Z" fill="currentColor"/>
  </symbol>

  <symbol id="apple" viewBox="0 0 24 24">
    <path d="M16.4 12.6c0-2.3 1.9-3.4 2-3.5-1.1-1.6-2.8-1.8-3.4-1.8-1.5-.1-2.8.9-3.6.9-.8 0-1.9-.9-3.1-.8-1.6 0-3 .9-3.8 2.3-1.6 2.8-.4 7 1.2 9.3.8 1.1 1.7 2.4 2.9 2.3 1.2 0 1.6-.7 3-.7s1.8.7 3 .7c1.3 0 2.1-1.1 2.9-2.3.6-.9 1-1.7 1.3-2.6-2.9-1.1-2.4-4.6-2.4-4.8Z" fill="currentColor"/>
    <path d="M13.9 5.3c.6-.8 1-1.9.9-3-.9.1-2 .6-2.6 1.4-.6.7-1.1 1.8-1 2.9 1 .1 2-.5 2.7-1.3Z" fill="currentColor"/>
  </symbol>

  <symbol id="playstore" viewBox="0 0 24 24">
    <path d="M4.3 3.6c-.3.3-.5.7-.5 1.3v14.2c0 .6.2 1 .5 1.3l.1.1L13 12.1v-.2L4.4 3.5l-.1.1Z" fill="currentColor"/>
    <path d="M15.9 15 13 12.1v-.2l2.9-2.9 3.5 2c1 .6 1 1.5 0 2.1l-3.5 2Z" fill="currentColor"/>
    <path d="M15.9 15 13 12 4.4 20.6c.3.3.9.4 1.5.1l10-5.7Z" fill="currentColor"/>
    <path d="M15.9 9.2 5.9 3.5c-.6-.3-1.2-.3-1.5.1L13 12l2.9-2.8Z" fill="currentColor"/>
  </symbol>

  <symbol id="phone" viewBox="0 0 24 24">
    <path d="M6.6 10.8c1.3 2.6 3.4 4.7 6 6l2-2c.3-.3.7-.4 1-.2 1.1.4 2.3.6 3.5.6.6 0 1 .4 1 1V20c0 .6-.4 1-1 1-9.4 0-17-7.6-17-17 0-.6.4-1 1-1h3.8c.6 0 1 .4 1 1 0 1.2.2 2.4.6 3.5.1.3 0 .7-.2 1l-2 2Z" fill="currentColor"/>
  </symbol>

  <symbol id="handshake" viewBox="0 0 24 24">
    <path d="M2 11.5 6 8l3.5 2.8-3 3.3L2 11.5Z" fill="currentColor" opacity=".85"/>
    <path d="M22 11.5 18 8l-3.5 2.8 3 3.3L22 11.5Z" fill="currentColor" opacity=".85"/>
    <path d="M6.5 10.5 10 13.8c.6.6 1.6.6 2.2 0l.3-.3 2 2c.5.5 1.3.5 1.8 0 .5-.5.5-1.3 0-1.8l-.4-.4c.4.3 1.1.3 1.5-.1.5-.5.5-1.2.1-1.7l-2.9-3.2-2.1 1.7c-.7.6-1.8.5-2.4-.1L8.5 8.3 6.5 10.5Z" fill="currentColor"/>
  </symbol>

  <symbol id="instagram" viewBox="0 0 24 24">
    <rect x="3" y="3" width="18" height="18" rx="5" fill="none" stroke="currentColor" stroke-width="1.8"/>
    <circle cx="12" cy="12" r="4.2" fill="none" stroke="currentColor" stroke-width="1.8"/>
    <circle cx="17.3" cy="6.7" r="1.1" fill="currentColor"/>
  </symbol>

  <symbol id="tiktok" viewBox="0 0 24 24">
    <path d="M15 3c.4 2.1 1.8 3.5 4 3.8v2.7c-1.4 0-2.8-.4-4-1.2v6.4c0 3.1-2.5 5.3-5.4 5.3-3 0-5.4-2.4-5.4-5.4 0-3 2.6-5.5 5.7-5.3v2.8c-1.4-.2-2.7.9-2.7 2.4 0 1.4 1.1 2.5 2.5 2.5s2.6-1 2.6-2.7V3h2.7Z" fill="currentColor"/>
  </symbol>

  <symbol id="youtube" viewBox="0 0 24 24">
    <rect x="2.5" y="6" width="19" height="12" rx="3.5" fill="none" stroke="currentColor" stroke-width="1.8"/>
    <path d="M10.5 9.5v5l4.5-2.5-4.5-2.5Z" fill="currentColor"/>
  </symbol>

  <symbol id="facebook" viewBox="0 0 24 24">
    <path d="M13.5 21v-7.6h2.6l.4-3H13.5V8.4c0-.9.2-1.5 1.5-1.5h1.6V4.2C16.3 4.1 15.3 4 14.2 4c-2.3 0-3.9 1.4-3.9 4v2.4H7.7v3H10.3V21h3.2Z" fill="currentColor"/>
  </symbol>

</svg>
