<svg width="104" height="44" viewBox="0 0 104 44" fill="none" xmlns="http://www.w3.org/2000/svg">
<g clip-path="url(#clip0_760_3677)">
<path d="M103.286 0H0V43.854H103.286V0Z" fill="#2E7D46"/>
<path d="M10.9694 32.8947V10.9633H27.6888V16.0578H17.046V19.4398H26.8497V24.388H17.046V27.8002H27.6888V32.8947H10.9694Z" fill="white"/>
<path d="M67.2142 11.9188C68.835 12.7958 70.1647 14.1267 71.0399 15.7483C72.9594 19.1518 72.9594 24.7195 71.0399 28.123C70.162 29.7382 68.8327 31.063 67.2142 31.9353C65.5393 32.7912 63.6853 33.2374 61.8045 33.2374C59.9236 33.2374 58.0696 32.7912 56.395 31.9353C54.7769 31.0549 53.447 29.7269 52.5647 28.1102C50.6626 24.7024 50.6667 19.1518 52.5647 15.7483C53.4412 14.1261 54.7723 12.7951 56.395 11.9188C58.0701 11.064 59.9238 10.6183 61.8045 10.6183C63.6851 10.6183 65.5391 11.064 67.2142 11.9188ZM64.2532 27.254C64.9595 26.7363 65.4933 26.018 65.7853 25.1928C66.4784 23.0752 66.4784 20.7918 65.7853 18.6742C65.4964 17.8473 64.962 17.1282 64.2532 16.6131C63.5269 16.1395 62.6783 15.8874 61.8109 15.8874C60.9437 15.8874 60.0951 16.1395 59.3686 16.6131C58.6635 17.1317 58.13 17.8496 57.8366 18.6742C57.1436 20.7918 57.1436 23.0752 57.8366 25.1928C58.1393 26.0185 58.6799 26.7357 59.3903 27.254C60.1172 27.7155 60.9606 27.9607 61.8216 27.9607C62.6828 27.9607 63.5263 27.7155 64.2532 27.254Z" fill="white"/>
<path d="M78.3938 32.3613C75.4028 31.109 74.0645 28.6824 74.0645 25.5026H79.8183C79.8239 26.0554 79.9954 26.594 80.3108 27.0482C80.6262 27.5025 81.071 27.8514 81.5872 28.0499C82.7523 28.4665 84.0196 28.5027 85.2066 28.1532C85.9725 27.8819 86.6784 27.3614 86.6784 26.475C86.6784 25.5886 85.8907 25.1455 85.1634 24.8701C83.8981 24.3838 82.3102 24.1601 80.9675 23.8976C78.8989 23.496 77.3052 22.7602 76.1862 21.6903C75.6348 21.1677 75.2004 20.5346 74.9112 19.8324C74.6218 19.1301 74.4844 18.3747 74.5078 17.6156C74.479 16.3088 74.8763 15.0281 75.6396 13.9668C77.4169 11.4927 80.5242 10.6236 83.442 10.6236C86.3599 10.6236 89.4671 11.4411 91.1885 14.0099C91.9369 15.1629 92.3358 16.5078 92.3375 17.8824H86.6999C86.545 16.1612 85.1549 15.4556 83.5668 15.4556C82.706 15.4556 81.6389 15.6492 81.0493 16.3161C80.826 16.5719 80.7004 16.8984 80.6948 17.2379C80.6894 17.5773 80.8043 17.9078 81.0191 18.1706C81.6302 18.8333 83.0332 19.1431 83.8897 19.3023C85.5722 19.625 87.2808 19.8917 88.8646 20.5673C90.4484 21.2429 91.7308 22.1807 92.3548 23.7643C92.7238 24.7833 92.8535 25.8736 92.7341 26.9511C92.6149 28.0284 92.2495 29.0637 91.6661 29.9774C90.8799 31.0869 89.7776 31.9341 88.5031 32.4086C85.6928 33.5315 81.1869 33.5187 78.4068 32.3613H78.3938Z" fill="white"/>
<path d="M36.5409 32.8947L29.1818 10.9633H35.9253L40.6422 27.2967L45.3589 10.9633H52.1027L44.7435 32.8947H36.5409Z" fill="white"/>
<path fill-rule="evenodd" clip-rule="evenodd" d="M92.3706 11.9657C92.9544 11.9657 93.4274 11.4942 93.4274 10.9126C93.4274 10.331 92.9544 9.85955 92.3706 9.85955C91.787 9.85955 91.3138 10.331 91.3138 10.9126C91.3138 11.4942 91.787 11.9657 92.3706 11.9657ZM92.3706 12.4262C93.2095 12.4262 93.8898 11.7485 93.8898 10.9126C93.8898 10.0767 93.2095 9.39906 92.3706 9.39906C91.5317 9.39906 90.8517 10.0767 90.8517 10.9126C90.8517 11.7485 91.5317 12.4262 92.3706 12.4262Z" fill="white"/>
<path d="M92.6061 11.5801L92.4256 11.1518H92.232V11.5801H91.8021V10.1708H92.4557C92.652 10.1523 92.8478 10.244 92.9587 10.4064C93.0469 10.5455 93.0506 10.7521 92.973 10.8972C92.9366 10.9651 92.8827 11.0219 92.8168 11.0618L93.0748 11.5801H92.6061ZM92.232 10.8262H92.3997C92.4694 10.8312 92.5456 10.8024 92.5759 10.7366C92.5939 10.6974 92.5939 10.6509 92.5759 10.6117C92.5458 10.5462 92.47 10.5116 92.3997 10.5178H92.232V10.8262Z" fill="white"/>
</g>
<defs>
<clipPath id="clip0_760_3677">
<rect width="103.286" height="44" fill="white"/>
</clipPath>
</defs>
</svg>
