<svg width="80" height="107" viewBox="0 0 80 107" fill="none" xmlns="http://www.w3.org/2000/svg">
<g filter="url(#filter0_d_2095_67551)">
<path d="M54.3078 43.7979C55.241 40.8417 57.8761 39.3349 60.8908 40.2817C64.3731 41.3754 66.1756 45.094 64.5795 48.4328C62.783 52.1906 58.7575 54.4597 56.5071 57.924C56.4185 58.059 56.3024 58.3443 56.194 58.423C56.1484 58.4241 56.1056 58.4194 56.0708 58.3815C55.1019 57.3286 53.901 56.4514 52.7238 55.6618C49.5541 53.5357 45.3437 51.812 44.2659 47.768C44.1047 47.1597 44.0196 46.7849 44.0005 46.1445C43.993 45.894 44.1433 45.2498 44.1232 45.1377L44.4403 44.2255L44.4526 44.2114C44.5593 44.0868 44.6045 43.9245 44.6873 43.7858C46.7251 40.3724 51.4521 40.0691 53.8933 43.2149C54.0341 43.3964 54.1625 43.6277 54.3078 43.7979Z" fill="#FF0004"/>
<path d="M60.8155 40.5201C64.1641 41.5717 65.8793 45.1339 64.3538 48.325C63.4769 50.1593 62.0515 51.6385 60.5389 53.109C59.0366 54.5693 57.4418 56.0257 56.2975 57.787C56.2462 57.8654 56.1819 57.9956 56.1385 58.075C56.1365 58.0786 56.1338 58.0816 56.1319 58.0851C55.1647 57.0672 53.9962 56.2145 52.8633 55.4546C52.0651 54.9192 51.1997 54.4079 50.347 53.887C49.4909 53.364 48.643 52.828 47.862 52.2351C46.3005 51.0497 45.0258 49.6497 44.507 47.7032C44.3481 47.1033 44.2684 46.7496 44.2501 46.1375C44.2473 46.0426 44.2768 45.8479 44.3129 45.6299C44.3296 45.5289 44.3475 45.4261 44.3592 45.3421C44.365 45.3 44.3703 45.2582 44.3731 45.2218C44.374 45.2091 44.375 45.1925 44.3752 45.174L44.6639 44.3438C44.7266 44.2636 44.7716 44.1808 44.8046 44.1115C44.8458 44.0251 44.8689 43.9697 44.9023 43.9139C46.8505 40.6509 51.3637 40.3626 53.6962 43.3683C53.7596 43.45 53.8208 43.5435 53.8911 43.6491C53.9585 43.7502 54.0344 43.8628 54.1178 43.9606L54.4102 44.3031L54.5464 43.8728C54.9962 42.4482 55.8506 41.3884 56.9388 40.7954C58.0256 40.2034 59.3668 40.0652 60.8155 40.5201Z" stroke="url(#paint0_linear_2095_67551)" stroke-width="0.5"/>
</g>
<defs>
<filter id="filter0_d_2095_67551" x="0" y="0" width="109.166" height="106.423" filterUnits="userSpaceOnUse" color-interpolation-filters="sRGB">
<feFlood flood-opacity="0" result="BackgroundImageFix"/>
<feColorMatrix in="SourceAlpha" type="matrix" values="0 0 0 0 0 0 0 0 0 0 0 0 0 0 0 0 0 0 127 0" result="hardAlpha"/>
<feOffset dy="4"/>
<feGaussianBlur stdDeviation="22"/>
<feComposite in2="hardAlpha" operator="out"/>
<feColorMatrix type="matrix" values="0 0 0 0 1 0 0 0 0 1 0 0 0 0 1 0 0 0 0.6 0"/>
<feBlend mode="normal" in2="BackgroundImageFix" result="effect1_dropShadow_2095_67551"/>
<feBlend mode="normal" in="SourceGraphic" in2="effect1_dropShadow_2095_67551" result="shape"/>
</filter>
<linearGradient id="paint0_linear_2095_67551" x1="57.0933" y1="38.9581" x2="50.9531" y2="56.6177" gradientUnits="userSpaceOnUse">
<stop stop-color="white" stop-opacity="0"/>
<stop offset="1" stop-color="white"/>
</linearGradient>
</defs>
</svg>
