<svg width="17" height="18" viewBox="0 0 17 18" fill="none" xmlns="http://www.w3.org/2000/svg">
<path d="M3.09455 0.286954L11.2065 4.93464L7.6188 8.46956L0.193544 1.15853C0.334266 0.866688 0.543025 0.610788 0.804302 0.413528C1.16085 0.144339 1.59564 -0.000881307 2.04239 4.02413e-06C2.41231 0.000998051 2.77535 0.100009 3.09455 0.286954Z" fill="#259B07"/>
<path d="M0 2.0205V15.9763L7.0845 8.996L0 2.0205Z" fill="#259B07"/>
<path d="M7.61899 9.52227L0.192761 16.8393C0.276132 17.0127 0.383789 17.1741 0.512961 17.3183C0.721269 17.5509 0.98 17.7328 1.26937 17.8501C1.55875 17.9673 1.87111 18.0169 2.18257 17.9949C2.49403 17.973 2.79635 17.8801 3.06641 17.7234L11.2276 13.0753L7.61899 9.52227Z" fill="#259B07"/>
<path d="M11.9097 12.6944L15.2422 10.7916C15.5652 10.6225 15.8357 10.3682 16.0245 10.0562C16.2133 9.74431 16.3131 9.38666 16.3131 9.02206C16.3131 8.65746 16.2133 8.29981 16.0245 7.98789C15.8357 7.67596 15.5652 7.42165 15.2422 7.25253H15.2534L11.8822 5.32173L8.15329 8.99582L11.9097 12.6944Z" fill="#259B07"/>
</svg>
