<svg width="17" height="14" viewBox="0 0 17 14" fill="none" xmlns="http://www.w3.org/2000/svg">
<path fill-rule="evenodd" clip-rule="evenodd" d="M1.13429 5.88663C5.56346 3.95689 8.51694 2.68469 9.99472 2.07003C14.2141 0.315035 15.0908 0.010174 15.6623 0.000107333C15.788 -0.00210672 16.069 0.029042 16.251 0.176752C16.4047 0.301475 16.447 0.469959 16.4673 0.58821C16.4875 0.706462 16.5127 0.975842 16.4927 1.18633C16.264 3.58878 15.2747 9.41889 14.7713 12.1097C14.5583 13.2482 14.139 13.63 13.733 13.6674C12.8507 13.7485 12.1807 13.0843 11.3262 12.5241C9.98894 11.6475 9.2335 11.1019 7.9355 10.2465C6.43544 9.25796 7.40787 8.71465 8.26275 7.82673C8.48647 7.59435 12.3739 4.05838 12.4492 3.73761C12.4586 3.69749 12.4673 3.54795 12.3785 3.46899C12.2896 3.39003 12.1585 3.41703 12.0639 3.4385C11.9298 3.46894 9.79358 4.88092 5.65526 7.67442C5.0489 8.09079 4.49968 8.29366 4.0076 8.28303C3.46512 8.27131 2.4216 7.9763 1.64586 7.72413C0.694369 7.41484 -0.0618527 7.25132 0.00399728 6.72604C0.038296 6.45245 0.41506 6.17264 1.13429 5.88663Z" fill="#259B07"/>
</svg>
